<mxfile host="app.diagrams.net" modified="2022-08-06T18:14:01.141Z" agent="5.0 (Windows NT 10.0; Win64; x64) AppleWebKit/537.36 (KHTML, like Gecko) Chrome/103.0.0.0 Safari/537.36" etag="NiVlOTx33XPsp_N0IneF" version="20.2.3" type="github">
  <diagram id="6VK-nP7q_2ZSDE9GbwMk" name="Page-1">
    <mxGraphModel dx="1422" dy="786" grid="1" gridSize="10" guides="1" tooltips="1" connect="1" arrows="1" fold="1" page="1" pageScale="1" pageWidth="850" pageHeight="1100" math="0" shadow="0">
      <root>
        <mxCell id="0" />
        <mxCell id="1" parent="0" />
        <mxCell id="vy9Qkh8yj5a3LUUhwQxa-1" value="" style="image;image=img/lib/atlassian/Bitbucket_Logo.svg;" vertex="1" parent="1">
          <mxGeometry x="70" y="198" width="57" height="50" as="geometry" />
        </mxCell>
        <mxCell id="vy9Qkh8yj5a3LUUhwQxa-3" value="" style="shape=image;html=1;verticalAlign=top;verticalLabelPosition=bottom;labelBackgroundColor=#ffffff;imageAspect=0;aspect=fixed;image=https://cdn1.iconfinder.com/data/icons/sea-24/32/Artboard_10sea-128.png" vertex="1" parent="1">
          <mxGeometry x="410" y="72" width="78" height="78" as="geometry" />
        </mxCell>
        <mxCell id="vy9Qkh8yj5a3LUUhwQxa-4" value="" style="rounded=1;whiteSpace=wrap;html=1;" vertex="1" parent="1">
          <mxGeometry x="590" y="80" width="250" height="320" as="geometry" />
        </mxCell>
        <mxCell id="vy9Qkh8yj5a3LUUhwQxa-5" value="" style="verticalLabelPosition=bottom;html=1;verticalAlign=top;align=center;strokeColor=none;fillColor=#00BEF2;shape=mxgraph.azure.virtual_machine;" vertex="1" parent="1">
          <mxGeometry x="665" y="100" width="50" height="40" as="geometry" />
        </mxCell>
        <mxCell id="vy9Qkh8yj5a3LUUhwQxa-6" value="" style="verticalLabelPosition=bottom;html=1;verticalAlign=top;align=center;strokeColor=none;fillColor=#00BEF2;shape=mxgraph.azure.virtual_machine;" vertex="1" parent="1">
          <mxGeometry x="665" y="209" width="50" height="40" as="geometry" />
        </mxCell>
        <mxCell id="vy9Qkh8yj5a3LUUhwQxa-7" value="" style="verticalLabelPosition=bottom;html=1;verticalAlign=top;align=center;strokeColor=none;fillColor=#00BEF2;shape=mxgraph.azure.virtual_machine;" vertex="1" parent="1">
          <mxGeometry x="665" y="310" width="50" height="40" as="geometry" />
        </mxCell>
        <mxCell id="vy9Qkh8yj5a3LUUhwQxa-8" value="Cloud" style="ellipse;shape=cloud;whiteSpace=wrap;html=1;align=center;" vertex="1" parent="1">
          <mxGeometry x="730" y="90" width="100" height="60" as="geometry" />
        </mxCell>
        <mxCell id="vy9Qkh8yj5a3LUUhwQxa-15" value="" style="edgeStyle=orthogonalEdgeStyle;rounded=0;orthogonalLoop=1;jettySize=auto;html=1;fontSize=12;" edge="1" parent="1" source="vy9Qkh8yj5a3LUUhwQxa-9" target="vy9Qkh8yj5a3LUUhwQxa-1">
          <mxGeometry relative="1" as="geometry" />
        </mxCell>
        <mxCell id="vy9Qkh8yj5a3LUUhwQxa-16" value="Push to www git repo" style="edgeLabel;html=1;align=center;verticalAlign=middle;resizable=0;points=[];fontSize=12;labelBorderColor=default;" vertex="1" connectable="0" parent="vy9Qkh8yj5a3LUUhwQxa-15">
          <mxGeometry x="-0.2414" y="1" relative="1" as="geometry">
            <mxPoint as="offset" />
          </mxGeometry>
        </mxCell>
        <mxCell id="vy9Qkh8yj5a3LUUhwQxa-18" value="" style="rounded=1;whiteSpace=wrap;html=1;" vertex="1" parent="1">
          <mxGeometry x="200" y="60" width="140" height="340" as="geometry" />
        </mxCell>
        <mxCell id="vy9Qkh8yj5a3LUUhwQxa-9" value="" style="verticalLabelPosition=bottom;html=1;verticalAlign=top;align=center;strokeColor=none;fillColor=#00BEF2;shape=mxgraph.azure.user;" vertex="1" parent="1">
          <mxGeometry x="74.75" y="40" width="47.5" height="50" as="geometry" />
        </mxCell>
        <mxCell id="vy9Qkh8yj5a3LUUhwQxa-10" value="Integration" style="text;strokeColor=none;fillColor=none;html=1;fontSize=12;fontStyle=1;verticalAlign=middle;align=center;" vertex="1" parent="1">
          <mxGeometry x="640" y="130" width="100" height="40" as="geometry" />
        </mxCell>
        <mxCell id="vy9Qkh8yj5a3LUUhwQxa-11" value="QA" style="text;strokeColor=none;fillColor=none;html=1;fontSize=12;fontStyle=1;verticalAlign=middle;align=center;" vertex="1" parent="1">
          <mxGeometry x="640" y="245" width="100" height="40" as="geometry" />
        </mxCell>
        <mxCell id="vy9Qkh8yj5a3LUUhwQxa-12" value="Production" style="text;strokeColor=none;fillColor=none;html=1;fontSize=12;fontStyle=1;verticalAlign=middle;align=center;" vertex="1" parent="1">
          <mxGeometry x="640" y="350" width="100" height="40" as="geometry" />
        </mxCell>
        <mxCell id="vy9Qkh8yj5a3LUUhwQxa-13" value="Teamcity" style="text;strokeColor=none;fillColor=none;html=1;fontSize=12;fontStyle=1;verticalAlign=middle;align=center;" vertex="1" parent="1">
          <mxGeometry x="214" y="80" width="100" height="30" as="geometry" />
        </mxCell>
        <mxCell id="vy9Qkh8yj5a3LUUhwQxa-2" value="" style="shape=image;html=1;verticalAlign=top;verticalLabelPosition=bottom;labelBackgroundColor=#ffffff;imageAspect=0;aspect=fixed;image=https://cdn4.iconfinder.com/data/icons/humility-icons-MERGE/48x48/apps/control-center2.png" vertex="1" parent="1">
          <mxGeometry x="240" y="40" width="48" height="48" as="geometry" />
        </mxCell>
        <mxCell id="vy9Qkh8yj5a3LUUhwQxa-26" value="" style="edgeStyle=none;rounded=0;orthogonalLoop=1;jettySize=auto;html=1;fontSize=12;" edge="1" parent="1" source="vy9Qkh8yj5a3LUUhwQxa-19" target="vy9Qkh8yj5a3LUUhwQxa-22">
          <mxGeometry relative="1" as="geometry" />
        </mxCell>
        <mxCell id="vy9Qkh8yj5a3LUUhwQxa-27" value="Successful build for&lt;br&gt;develop or hotfix/*&lt;br&gt;trigger" style="edgeLabel;html=1;align=center;verticalAlign=middle;resizable=0;points=[];fontSize=12;labelBorderColor=default;" vertex="1" connectable="0" parent="vy9Qkh8yj5a3LUUhwQxa-26">
          <mxGeometry x="-0.3171" y="2" relative="1" as="geometry">
            <mxPoint as="offset" />
          </mxGeometry>
        </mxCell>
        <mxCell id="vy9Qkh8yj5a3LUUhwQxa-19" value="" style="aspect=fixed;perimeter=ellipsePerimeter;html=1;align=center;shadow=0;dashed=0;fontColor=#4277BB;labelBackgroundColor=#ffffff;fontSize=12;spacingTop=3;image;image=img/lib/ibm/devops/build_test.svg;" vertex="1" parent="1">
          <mxGeometry x="240" y="147" width="60" height="60" as="geometry" />
        </mxCell>
        <mxCell id="vy9Qkh8yj5a3LUUhwQxa-20" value="Compile / Test" style="text;strokeColor=none;fillColor=none;html=1;fontSize=12;fontStyle=1;verticalAlign=middle;align=center;" vertex="1" parent="1">
          <mxGeometry x="220" y="110" width="100" height="40" as="geometry" />
        </mxCell>
        <mxCell id="vy9Qkh8yj5a3LUUhwQxa-21" value="" style="rounded=0;orthogonalLoop=1;jettySize=auto;html=1;fontSize=12;entryX=0;entryY=0.75;entryDx=0;entryDy=0;" edge="1" parent="1" source="vy9Qkh8yj5a3LUUhwQxa-1" target="vy9Qkh8yj5a3LUUhwQxa-19">
          <mxGeometry relative="1" as="geometry" />
        </mxCell>
        <mxCell id="vy9Qkh8yj5a3LUUhwQxa-24" value="New commit&lt;br&gt;trigger" style="edgeLabel;html=1;align=center;verticalAlign=middle;resizable=0;points=[];fontSize=12;labelBorderColor=default;" vertex="1" connectable="0" parent="vy9Qkh8yj5a3LUUhwQxa-21">
          <mxGeometry x="-0.3168" y="2" relative="1" as="geometry">
            <mxPoint x="3" y="1" as="offset" />
          </mxGeometry>
        </mxCell>
        <mxCell id="vy9Qkh8yj5a3LUUhwQxa-30" style="edgeStyle=orthogonalEdgeStyle;rounded=0;orthogonalLoop=1;jettySize=auto;html=1;exitX=1;exitY=0.75;exitDx=0;exitDy=0;entryX=0.5;entryY=1;entryDx=0;entryDy=0;fontSize=12;" edge="1" parent="1" source="vy9Qkh8yj5a3LUUhwQxa-22" target="vy9Qkh8yj5a3LUUhwQxa-3">
          <mxGeometry relative="1" as="geometry" />
        </mxCell>
        <mxCell id="vy9Qkh8yj5a3LUUhwQxa-31" value="&#xa;&lt;span style=&quot;color: rgb(0, 0, 0); font-family: Helvetica; font-size: 12px; font-style: normal; font-variant-ligatures: normal; font-variant-caps: normal; font-weight: 400; letter-spacing: normal; orphans: 2; text-align: center; text-indent: 0px; text-transform: none; widows: 2; word-spacing: 0px; -webkit-text-stroke-width: 0px; background-color: rgb(255, 255, 255); text-decoration-thickness: initial; text-decoration-style: initial; text-decoration-color: initial; float: none; display: inline !important;&quot;&gt;Push package&lt;/span&gt;&lt;br style=&quot;color: rgb(0, 0, 0); font-family: Helvetica; font-size: 12px; font-style: normal; font-variant-ligatures: normal; font-variant-caps: normal; font-weight: 400; letter-spacing: normal; orphans: 2; text-align: center; text-indent: 0px; text-transform: none; widows: 2; word-spacing: 0px; -webkit-text-stroke-width: 0px; text-decoration-thickness: initial; text-decoration-style: initial; text-decoration-color: initial;&quot;&gt;&lt;span style=&quot;color: rgb(0, 0, 0); font-family: Helvetica; font-size: 12px; font-style: normal; font-variant-ligatures: normal; font-variant-caps: normal; font-weight: 400; letter-spacing: normal; orphans: 2; text-align: center; text-indent: 0px; text-transform: none; widows: 2; word-spacing: 0px; -webkit-text-stroke-width: 0px; background-color: rgb(255, 255, 255); text-decoration-thickness: initial; text-decoration-style: initial; text-decoration-color: initial; float: none; display: inline !important;&quot;&gt;to Octopus artifact&lt;/span&gt;&lt;br style=&quot;color: rgb(0, 0, 0); font-family: Helvetica; font-size: 12px; font-style: normal; font-variant-ligatures: normal; font-variant-caps: normal; font-weight: 400; letter-spacing: normal; orphans: 2; text-align: center; text-indent: 0px; text-transform: none; widows: 2; word-spacing: 0px; -webkit-text-stroke-width: 0px; text-decoration-thickness: initial; text-decoration-style: initial; text-decoration-color: initial;&quot;&gt;&lt;span style=&quot;color: rgb(0, 0, 0); font-family: Helvetica; font-size: 12px; font-style: normal; font-variant-ligatures: normal; font-variant-caps: normal; font-weight: 400; letter-spacing: normal; orphans: 2; text-align: center; text-indent: 0px; text-transform: none; widows: 2; word-spacing: 0px; -webkit-text-stroke-width: 0px; background-color: rgb(255, 255, 255); text-decoration-thickness: initial; text-decoration-style: initial; text-decoration-color: initial; float: none; display: inline !important;&quot;&gt;repo&lt;/span&gt;&#xa;&#xa;" style="edgeLabel;html=1;align=center;verticalAlign=middle;resizable=0;points=[];fontSize=12;labelBorderColor=default;" vertex="1" connectable="0" parent="vy9Qkh8yj5a3LUUhwQxa-30">
          <mxGeometry x="-0.2752" y="-1" relative="1" as="geometry">
            <mxPoint as="offset" />
          </mxGeometry>
        </mxCell>
        <mxCell id="vy9Qkh8yj5a3LUUhwQxa-32" value="Integration deployment&lt;br&gt;trigger" style="edgeLabel;html=1;align=center;verticalAlign=middle;resizable=0;points=[];fontSize=12;labelBorderColor=default;" vertex="1" connectable="0" parent="vy9Qkh8yj5a3LUUhwQxa-30">
          <mxGeometry x="0.5935" y="1" relative="1" as="geometry">
            <mxPoint as="offset" />
          </mxGeometry>
        </mxCell>
        <mxCell id="vy9Qkh8yj5a3LUUhwQxa-22" value="" style="aspect=fixed;perimeter=ellipsePerimeter;html=1;align=center;shadow=0;dashed=0;fontColor=#4277BB;labelBackgroundColor=#ffffff;fontSize=12;spacingTop=3;image;image=img/lib/ibm/devops/build_test.svg;" vertex="1" parent="1">
          <mxGeometry x="240" y="289" width="60" height="60" as="geometry" />
        </mxCell>
        <mxCell id="vy9Qkh8yj5a3LUUhwQxa-23" value="Octopus Deploy&lt;br&gt;&amp;nbsp;to Integration" style="text;strokeColor=none;fillColor=none;html=1;fontSize=12;fontStyle=1;verticalAlign=middle;align=center;" vertex="1" parent="1">
          <mxGeometry x="220" y="340" width="100" height="40" as="geometry" />
        </mxCell>
        <mxCell id="vy9Qkh8yj5a3LUUhwQxa-34" style="rounded=0;orthogonalLoop=1;jettySize=auto;html=1;exitX=1;exitY=0.5;exitDx=0;exitDy=0;entryX=0;entryY=0.5;entryDx=0;entryDy=0;entryPerimeter=0;fontSize=12;" edge="1" parent="1" source="vy9Qkh8yj5a3LUUhwQxa-3" target="vy9Qkh8yj5a3LUUhwQxa-5">
          <mxGeometry relative="1" as="geometry" />
        </mxCell>
        <mxCell id="vy9Qkh8yj5a3LUUhwQxa-38" value="Manual./Teamcity trigger" style="edgeLabel;html=1;align=center;verticalAlign=middle;resizable=0;points=[];fontSize=12;labelBorderColor=default;" vertex="1" connectable="0" parent="vy9Qkh8yj5a3LUUhwQxa-34">
          <mxGeometry x="-0.2647" y="-1" relative="1" as="geometry">
            <mxPoint x="28" y="-4" as="offset" />
          </mxGeometry>
        </mxCell>
        <mxCell id="vy9Qkh8yj5a3LUUhwQxa-36" style="edgeStyle=none;rounded=0;orthogonalLoop=1;jettySize=auto;html=1;exitX=1;exitY=0.5;exitDx=0;exitDy=0;entryX=0;entryY=0.5;entryDx=0;entryDy=0;entryPerimeter=0;fontSize=12;" edge="1" parent="1" source="vy9Qkh8yj5a3LUUhwQxa-3" target="vy9Qkh8yj5a3LUUhwQxa-7">
          <mxGeometry relative="1" as="geometry" />
        </mxCell>
        <mxCell id="vy9Qkh8yj5a3LUUhwQxa-40" value="Manual trigger" style="edgeLabel;html=1;align=center;verticalAlign=middle;resizable=0;points=[];fontSize=12;labelBorderColor=default;" vertex="1" connectable="0" parent="vy9Qkh8yj5a3LUUhwQxa-36">
          <mxGeometry x="0.1435" y="-3" relative="1" as="geometry">
            <mxPoint as="offset" />
          </mxGeometry>
        </mxCell>
        <mxCell id="vy9Qkh8yj5a3LUUhwQxa-35" style="edgeStyle=none;rounded=0;orthogonalLoop=1;jettySize=auto;html=1;exitX=1;exitY=0.5;exitDx=0;exitDy=0;entryX=0.04;entryY=0.7;entryDx=0;entryDy=0;entryPerimeter=0;fontSize=12;" edge="1" parent="1" source="vy9Qkh8yj5a3LUUhwQxa-3" target="vy9Qkh8yj5a3LUUhwQxa-6">
          <mxGeometry relative="1" as="geometry" />
        </mxCell>
        <mxCell id="vy9Qkh8yj5a3LUUhwQxa-39" value="Manual trigger" style="edgeLabel;html=1;align=center;verticalAlign=middle;resizable=0;points=[];fontSize=12;labelBorderColor=default;" vertex="1" connectable="0" parent="vy9Qkh8yj5a3LUUhwQxa-35">
          <mxGeometry x="0.1302" y="1" relative="1" as="geometry">
            <mxPoint x="10" y="8" as="offset" />
          </mxGeometry>
        </mxCell>
      </root>
    </mxGraphModel>
  </diagram>
</mxfile>
